{"scene":0,"asset":{"generator":"ImageToStl.com","version":"2.0"},"scenes":[{"name":"Scene","nodes":[0]}],"nodes":[{"name":"Node0","children":[1]},{"name":"Node1","mesh":0}],"materials":[{"name":"Material_0.001","pbrMetallicRoughness":{"baseColorFactor":[0.8,0.8,0.8,1.0],"metallicFactor":0.5,"roughnessFactor":0.96},"emissiveFactor":[0.0,0.0,0.0],"doubleSided":true}],"meshes":[{"name":"Mesh0","primitives":[{"indices":3,"material":0,"attributes":{"POSITION":0,"NORMAL":1,"TEXCOORD_0":2}}]}],"accessors":[{"bufferView":0,"componentType":5126,"count":34260,"type":"VEC3","min":[-0.495338,-0.425852,-0.999426],"max":[0.482438,0.429369,0.995972]},{"bufferView":1,"componentType":5126,"count":34260,"type":"VEC3"},{"bufferView":2,"componentType":5126,"count":34260,"type":"VEC2"},{"bufferView":3,"componentType":5123,"count":507042,"type":"SCALAR"}],"bufferViews":[{"target":34962,"buffer":0,"byteLength":411120,"byteOffset":0},{"target":34962,"buffer":0,"byteLength":411120,"byteOffset":411120},{"target":34962,"buffer":0,"byteLength":274080,"byteOffset":822240},{"target":34963,"buffer":0,"byteLength":1014084,"byteOffset":1096320}],"buffers":[{"byteLength":2110404,"uri":"data:application/octet-stream;base64,"}]}